<svg width="185" height="282" viewBox="0 0 185 282" fill="none" xmlns="http://www.w3.org/2000/svg">
<g clip-path="url(#clip0_292_4008)" filter="url(#filter0_d_292_4008)">
<path fill-rule="evenodd" clip-rule="evenodd" d="M47.7655 273.698C47.7056 273.826 47.5976 273.926 47.4651 273.974C47.3327 274.022 47.1867 274.015 47.0592 273.955C46.9318 273.894 46.8334 273.785 46.7856 273.652C46.7378 273.519 46.7447 273.372 46.8045 273.243C47.6221 271.519 48.2556 270.162 48.8784 268.834C61.7561 241.409 72.1147 219.345 108.25 219.032C126.474 218.873 133.19 217.203 146.836 213.806L148.957 213.278C148.713 211.714 148.73 211.076 149.453 210.955C149.843 210.889 150.29 211.137 151.012 211.533L151.037 211.55C151.416 211.766 151.88 212.014 152.439 212.287C152.996 211.927 153.843 211.363 154.793 210.731C156.465 209.619 158.453 208.296 159.825 207.439C153.293 206.605 147.198 205.654 141.543 203.734C135.405 201.657 129.772 198.448 124.661 193.042C123.645 191.964 123.09 191.143 122.936 190.617C122.876 190.466 122.859 190.302 122.885 190.141C122.911 189.98 122.979 189.83 123.084 189.706C123.197 189.593 123.338 189.512 123.491 189.47C123.645 189.429 123.807 189.428 123.961 189.469C124.514 189.561 125.423 190.029 126.605 190.915C132.255 195.143 137.263 198.224 142.765 200.325C148.268 202.426 154.282 203.558 161.946 203.879C165.146 204.047 168.292 203.007 170.77 200.961C173.043 199.101 174.727 196.509 175.693 193.634C176.686 190.758 176.918 187.671 176.367 184.676C175.725 181.392 174.045 178.339 171.162 176.151C171.096 176.103 171.042 176.039 171.005 175.965C170.968 175.892 170.949 175.81 170.949 175.728C170.949 175.646 170.968 175.564 171.005 175.491C171.042 175.417 171.096 175.353 171.162 175.305C173.277 173.613 175.092 171.572 176.531 169.271C178.761 165.765 179.949 161.691 179.956 157.529C179.954 153.458 178.586 149.508 176.073 146.319C174.691 144.587 173.027 143.104 171.151 141.933C171.092 141.897 171.042 141.848 171.001 141.792C170.961 141.735 170.933 141.671 170.918 141.603C170.902 141.535 170.9 141.465 170.912 141.396C170.924 141.327 170.949 141.262 170.986 141.203C171.021 141.145 171.068 141.094 171.123 141.054C173.555 139.181 175.558 136.803 176.996 134.081C178.558 131.105 179.223 127.735 178.909 124.384C178.57 121.045 177.289 117.874 175.217 115.245C173.283 112.805 170.85 110.813 168.084 109.403C167.96 109.338 167.866 109.226 167.824 109.092C167.781 108.958 167.793 108.813 167.857 108.687C167.885 108.632 167.923 108.582 167.968 108.541C170.997 105.714 173.037 102.848 173.852 99.6303C174.667 96.413 174.267 92.8293 172.42 88.5454C170.633 84.3971 167.192 81.307 162.967 79.2792C159.166 77.4605 154.736 76.508 150.295 76.4304C145.854 76.3528 141.402 77.1458 137.55 78.8288C134.029 80.3782 131.022 82.6603 129.032 85.7009C136.355 80.9385 143.232 77.9108 146.943 76.939C148.501 76.5317 149.599 76.4929 150.068 76.8377C150.738 77.329 150.511 78.178 149.141 79.374C146.849 81.3759 140.865 85.007 129.592 90.446C125.706 92.3208 121.736 93.9327 118.176 95.3786C113.04 97.4646 108.759 99.1993 107.009 100.794C103.841 103.664 102.236 106.78 101.808 109.7C101.487 111.729 101.745 113.807 102.553 115.693C103.289 117.416 104.506 118.887 106.056 119.927C107.789 121.085 109.886 121.558 111.944 121.255C126.245 119.188 140.572 113.577 147.97 110.679C149.105 110.235 150.074 109.853 150.881 109.552C154.53 108.181 160.512 107.332 163.709 107.362C164.81 107.362 165.636 107.498 166.019 107.75C166.768 108.248 166.661 108.851 165.4 109.549C163.964 110.336 160.358 111.521 153.477 113.176C147.913 114.516 142.688 116.171 137.64 117.775C128.687 120.615 120.274 123.287 111.165 123.78H111.097C107.531 123.483 105.196 124.869 103.968 127.052C103.299 128.294 102.933 129.678 102.897 131.09C102.844 132.68 103.072 134.267 103.569 135.777C105.006 140.218 108.655 144.356 114.136 145.185C116.659 145.569 118.335 146.174 119.953 146.756C124.8 148.508 129.094 150.057 155.735 144.31C162.716 142.802 167.117 142.171 169.103 142.168C170.186 142.168 170.755 142.427 170.815 142.907C170.873 143.338 170.43 143.795 169.494 144.239C167.624 145.129 163.288 146.491 156.7 148.038C149.877 149.644 142.309 150.969 135.491 151.467C129.759 151.885 124.548 151.715 120.723 150.635C120.69 150.626 120.658 150.614 120.627 150.598L119.58 150.148C117.714 149.34 116.079 148.64 114.752 148.478C112.588 148.228 111.135 149.609 110.519 155.005C110.299 157.114 110.535 159.246 111.21 161.254C111.921 163.409 113.048 165.312 114.324 166.616C115.745 168.068 119.535 171.357 123.448 173.781C125.913 175.305 128.411 176.466 130.337 176.559C132.332 176.656 138.847 176.658 145.385 176.61C152.51 176.559 159.667 176.449 161.028 176.339C165.929 175.938 169.064 176.061 170.473 176.419C171.258 176.617 171.663 176.96 171.686 177.399V177.419C171.701 177.849 171.341 178.224 170.616 178.524C169.265 179.08 166.196 179.645 161.486 179.912C156.846 180.175 151.521 180.213 146.41 180.108C140.497 179.987 134.874 179.677 130.928 179.28C128.741 179.065 126.491 178.203 124.507 177.455C122.463 176.679 120.706 176.013 119.812 176.313C118.848 176.638 118.795 178.38 120.334 183.023L120.588 183.788C121.457 186.396 122.127 188.404 121.509 188.844C120.959 189.234 119.715 188.077 117.2 184.491C116.081 182.89 116.006 181.677 115.897 179.856C115.784 177.267 115.324 174.707 114.529 172.242C114.288 171.452 113.352 171.165 112.203 170.792C110.196 170.146 107.634 169.344 106.14 165.646C103.293 168.174 96.2264 173.962 91.9331 176.83C90.6725 177.673 89.6324 178.274 88.9753 178.487C87.642 178.918 87.1476 178.541 87.8496 177.052C88.3161 176.063 89.7586 174.152 92.558 170.984C94.2445 169.075 95.6378 167.247 95.4088 166.521C95.2098 165.875 93.3456 166.125 88.451 168.068C78.392 172.068 74.4219 173.167 74.1244 172.406C73.767 171.497 78.2229 168.835 83.903 165.444C88.0186 162.985 92.7999 160.127 96.7999 157.483L97.8058 156.822C103.287 153.238 107.587 150.428 102.878 142.899C101.237 140.285 99.9589 137.457 99.0793 134.495C97.9214 130.68 97.0118 125.675 96.7914 118.962C96.5774 112.206 97.8337 107.44 100.278 103.641C102.722 99.8414 106.313 97.0659 110.765 94.2473C122.448 86.8602 126.956 83.9037 126.602 83.3585C126.367 82.9814 123.55 83.3369 119.03 83.9058C115.298 84.3756 110.455 84.9833 104.841 85.3388C104.732 86.0974 104.515 86.5909 104.246 86.8473C103.751 87.3084 103.206 87.1878 102.713 86.5715C102.307 85.9952 102.016 85.3444 101.857 84.6557C101.078 81.7294 101.018 76.1158 104.13 69.9657C105.77 66.7333 107.769 63.8198 109.748 60.915C116.336 51.2868 122.968 41.594 116.755 19.06C114.726 11.6945 110.011 5.73185 105.369 2.87658C103.702 1.82283 102.039 1.20437 100.524 1.07723C99.0729 0.960861 97.7652 1.31211 96.7336 2.20856C95.3168 3.43902 94.3794 5.70384 94.2188 9.20558L94.1696 10.3132C93.6881 21.1654 93.6838 21.2149 89.4119 32.6145C82.9528 49.8538 82.8843 49.9314 72.8959 61.2749C71.8258 62.4967 70.6273 63.8608 69.2575 65.4296C64.1895 71.2349 52.9427 91.7842 44.9918 110.467C39.1683 124.149 35.119 136.777 36.6064 141.714C37.3555 142.63 37.8135 143.399 37.9762 144.011C38.0405 144.206 38.0653 144.412 38.0492 144.617C38.033 144.822 37.9761 145.022 37.882 145.205C37.7736 145.381 37.6299 145.533 37.4601 145.651C37.2902 145.768 37.0979 145.849 36.8953 145.888C36.3646 146.019 35.6112 146.008 34.6567 145.842C31.8059 151.135 24.2424 159.337 17.0128 167.176C12.4027 172.176 7.92969 177.026 4.93553 180.838C4.89605 180.9 4.84428 180.952 4.78352 180.993C4.72275 181.033 4.65432 181.06 4.58258 181.072C4.51083 181.085 4.43735 181.082 4.36679 181.064C4.29624 181.046 4.23016 181.013 4.17276 180.968C4.11537 180.923 4.06791 180.867 4.0334 180.802C3.9989 180.738 3.97811 180.667 3.97235 180.594C3.96659 180.521 3.97599 180.447 3.99996 180.378C4.02392 180.309 4.06192 180.245 4.11155 180.192C7.14851 176.313 11.628 171.467 16.2423 166.463C23.5725 158.513 31.2452 150.191 33.8905 145.043C33.9392 144.933 34.0238 144.842 34.1304 144.786C34.237 144.731 34.3592 144.713 34.4769 144.737C35.4764 144.937 36.1891 144.978 36.6428 144.866C36.769 144.851 36.8845 144.788 36.966 144.69C37.0138 144.563 37.0138 144.422 36.966 144.295C36.8376 143.813 36.4331 143.157 35.7546 142.336C35.7034 142.279 35.6648 142.212 35.6412 142.138C33.9868 136.981 38.0853 124.02 44.0308 110.051C52.0181 91.2864 63.3505 70.6164 68.4742 64.7378C69.7947 63.2294 71.0189 61.8308 72.1126 60.5767C81.9725 49.3711 82.0389 49.3 88.4317 32.2395C92.6458 20.9973 92.6479 20.9499 93.1231 10.2593L93.1723 9.15386C93.3435 5.33104 94.42 2.81409 96.0487 1.39615C97.3136 0.31654 98.8867 -0.114443 100.616 0.0256262C102.287 0.159231 104.109 0.831566 105.928 1.95212C110.769 4.92807 115.677 11.1235 117.78 18.7605C124.124 41.7685 117.352 51.6683 110.626 61.499C108.657 64.3693 106.698 67.2332 105.08 70.4333C102.11 76.3033 102.153 81.613 102.885 84.367C103.002 84.9109 103.22 85.4277 103.527 85.8905C103.574 85.9487 103.477 86.106 103.527 86.0521C103.661 85.925 103.775 85.522 103.833 84.785C103.843 84.657 103.899 84.5371 103.99 84.4473C104.082 84.3575 104.202 84.3037 104.329 84.2959C110.065 83.9532 115.065 83.324 118.896 82.8413C123.818 82.2207 126.896 81.8328 127.488 82.7831C128.33 84.1342 123.636 87.3408 111.313 95.1329C106.972 97.8783 103.48 100.578 101.145 104.207C98.8096 107.836 97.6111 112.396 97.8251 118.919C98.0391 125.526 98.9337 130.439 100.068 134.176C100.92 137.052 102.159 139.797 103.751 142.334C109.016 150.738 104.342 153.807 98.373 157.714L97.3714 158.36C93.305 161.052 88.5344 163.901 84.4316 166.351C79.186 169.484 75.0704 171.954 75.0982 172.014C75.1453 172.13 78.7023 170.792 88.0614 167.075C93.7309 164.823 96.0081 164.92 96.4083 166.194C96.7828 167.381 95.2397 169.531 93.3392 171.682C90.7067 174.662 89.3199 176.466 88.8448 177.399C89.719 176.988 90.5554 176.499 91.3445 175.94C95.9267 172.88 103.702 166.459 106.001 164.334C106.057 164.284 106.122 164.246 106.193 164.222C106.326 164.179 106.469 164.19 106.594 164.253C106.718 164.316 106.812 164.425 106.857 164.558C108.122 168.383 110.596 169.167 112.511 169.773C113.952 170.23 115.122 170.6 115.529 171.928C116.349 174.472 116.825 177.116 116.942 179.789C117.04 181.427 117.106 182.519 118.057 183.883C120.128 186.842 120.884 187.978 120.897 187.978C120.909 187.978 120.312 186.312 119.585 184.127L119.33 183.362C117.541 177.974 117.879 175.845 119.471 175.311C120.723 174.891 122.641 175.619 124.871 176.464C126.797 177.199 128.987 178.026 131.028 178.229C134.958 178.617 140.552 178.931 146.438 179.052C151.515 179.158 156.809 179.117 161.437 178.854C166.025 178.595 168.968 178.065 170.226 177.548C170.498 177.436 170.644 177.509 170.654 177.459C170.665 177.41 170.52 177.522 170.237 177.459C168.921 177.125 165.91 177.018 161.128 177.408C159.774 177.518 152.578 177.623 145.408 177.679C138.844 177.727 132.306 177.724 130.307 177.63C128.167 177.526 125.515 176.3 122.919 174.697C118.925 172.234 115.047 168.857 113.594 167.37C112.207 165.952 110.987 163.922 110.228 161.597C109.504 159.441 109.252 157.154 109.489 154.891C110.202 148.672 112.068 147.101 114.891 147.428C116.372 147.601 118.074 148.338 120.017 149.178L121.049 149.624C124.74 150.663 129.823 150.82 135.431 150.413C142.19 149.92 149.7 148.603 156.478 147.008C162.99 145.478 167.249 144.147 169.06 143.287L169.188 143.229H169.111C167.185 143.229 162.877 143.856 155.962 145.347C129.034 151.165 124.606 149.558 119.606 147.754C117.793 147.048 115.909 146.543 113.988 146.245C108.062 145.349 104.122 140.893 102.576 136.117C102.04 134.489 101.795 132.777 101.853 131.062C101.894 129.479 102.306 127.928 103.056 126.537C104.477 124.009 107.137 122.399 111.157 122.727C120.109 122.235 128.454 119.587 137.331 116.77C142.376 115.167 147.594 113.512 153.235 112.155C160.015 110.523 163.534 109.377 164.899 108.627C165.096 108.519 165.606 108.75 165.443 108.644C165.229 108.506 164.608 108.429 163.703 108.429C160.583 108.392 154.783 109.215 151.247 110.547C150.479 110.836 149.496 111.222 148.349 111.67C140.905 114.581 126.502 120.223 112.081 122.304C109.769 122.645 107.414 122.113 105.468 120.811C103.754 119.654 102.409 118.024 101.594 116.115C100.707 114.046 100.421 111.767 100.77 109.541C101.247 106.397 102.949 103.054 106.315 100.005C108.209 98.2813 112.56 96.5207 117.795 94.4024C121.35 92.9586 125.316 91.3489 129.149 89.5C140.323 84.1127 146.228 80.5334 148.465 78.581C149.15 77.982 149.464 77.704 149.46 77.7018C149.246 77.551 148.465 77.6479 147.217 77.9733C143.288 79.0012 135.709 82.4038 127.835 87.7825C127.742 87.8568 127.626 87.8971 127.507 87.8966C127.388 87.8961 127.272 87.855 127.179 87.78C127.087 87.705 127.022 87.6004 126.995 87.4835C126.969 87.3665 126.983 87.244 127.035 87.136C129.036 82.893 132.702 79.8093 137.152 77.8699C141.124 76.133 145.712 75.3099 150.31 75.3917C154.907 75.4736 159.483 76.4563 163.416 78.3397C167.859 80.4644 171.487 83.727 173.385 88.1381C175.333 92.6634 175.74 96.4668 174.884 99.9061C174.062 103.138 172.101 106.022 169.225 108.825C171.863 110.273 174.185 112.239 176.054 114.607C178.255 117.396 179.616 120.761 179.977 124.304C180.307 127.855 179.603 131.426 177.95 134.581C176.558 137.227 174.652 139.564 172.345 141.453C174.068 142.617 175.603 144.04 176.897 145.672C179.549 149.046 180.993 153.222 180.996 157.524C180.994 161.888 179.753 166.16 177.42 169.837C176.033 172.053 174.312 174.037 172.317 175.718C174.972 177.947 176.77 181.039 177.4 184.461C178 187.64 177.764 190.922 176.716 193.981C175.682 197.028 173.884 199.799 171.451 201.782C168.772 203.99 165.371 205.114 161.914 204.932C154.128 204.605 148.002 203.454 142.404 201.314C136.805 199.175 131.713 196.048 125.992 191.764C125.407 191.292 124.764 190.898 124.079 190.592C124.459 191.221 124.916 191.8 125.438 192.315C130.429 197.582 135.908 200.72 141.892 202.734C147.876 204.749 154.444 205.704 161.518 206.583C161.631 206.597 161.737 206.647 161.819 206.727C161.901 206.806 161.956 206.91 161.974 207.023C161.993 207.136 161.974 207.252 161.922 207.354C161.869 207.456 161.785 207.538 161.683 207.587C160.827 208.001 157.779 210.029 155.39 211.619C154.299 212.345 153.344 212.979 152.773 213.343C152.698 213.39 152.613 213.417 152.525 213.422C152.437 213.427 152.35 213.411 152.27 213.373C151.557 213.037 150.986 212.727 150.558 212.481L150.53 212.466C150.246 212.296 149.953 212.142 149.653 212.003C149.486 212.031 149.907 212.434 150.1 213.591C150.122 213.723 150.093 213.858 150.02 213.97C149.947 214.082 149.835 214.162 149.706 214.194L147.114 214.841C133.391 218.254 126.639 219.935 108.284 220.094C72.8124 220.403 62.5779 242.198 49.8565 269.291C49.1138 270.875 48.3583 272.468 47.7826 273.705L47.7655 273.698ZM169.779 143.045C169.779 142.985 169.713 143.045 169.586 143.106C169.717 143.086 169.786 143.086 169.779 143.045Z" fill="#5046e4"/>
</g>
<defs>

</defs>
</svg>
